<svg width="121" height="32" viewBox="0 0 121 32" fill="none" xmlns="http://www.w3.org/2000/svg">
<path d="M45.9266 23.13C45.1119 23.13 44.3969 22.9653 43.7816 22.636C43.1749 22.3067 42.7026 21.8387 42.3646 21.232C42.0352 20.6167 41.8706 19.893 41.8706 19.061V14.55C41.8706 14.3073 41.9486 14.1167 42.1046 13.978C42.2606 13.8393 42.4686 13.77 42.7286 13.77C42.9886 13.77 43.1966 13.8437 43.3526 13.991C43.5172 14.1297 43.5996 14.316 43.5996 14.55V19.1C43.5996 19.958 43.8032 20.6167 44.2106 21.076C44.6179 21.5353 45.2029 21.765 45.9656 21.765C46.7196 21.765 47.3002 21.5353 47.7076 21.076C48.1236 20.608 48.3316 19.9493 48.3316 19.1V14.55C48.3316 14.316 48.4096 14.1297 48.5656 13.991C48.7302 13.8437 48.9426 13.77 49.2026 13.77C49.4626 13.77 49.6706 13.8393 49.8266 13.978C49.9826 14.1167 50.0606 14.3073 50.0606 14.55V19.061C50.0606 19.867 49.8872 20.5777 49.5406 21.193C49.2026 21.8083 48.7216 22.285 48.0976 22.623C47.4736 22.961 46.7499 23.13 45.9266 23.13ZM56.93 23.13C56.67 23.13 56.462 23.0607 56.306 22.922C56.15 22.7833 56.072 22.5927 56.072 22.35V15.239H53.563C53.3117 15.239 53.1124 15.1827 52.965 15.07C52.8264 14.9487 52.757 14.784 52.757 14.576C52.757 14.3593 52.8264 14.1947 52.965 14.082C53.1037 13.9607 53.303 13.9 53.563 13.9H60.31C60.57 13.9 60.7694 13.9607 60.908 14.082C61.0467 14.1947 61.116 14.3593 61.116 14.576C61.116 14.784 61.0424 14.9487 60.895 15.07C60.7564 15.1827 60.5614 15.239 60.31 15.239H57.801V22.35C57.801 22.584 57.7187 22.7747 57.554 22.922C57.398 23.0607 57.19 23.13 56.93 23.13ZM64.7341 23.13C64.4741 23.13 64.2661 23.0607 64.1101 22.922C63.9541 22.7833 63.8761 22.5927 63.8761 22.35V14.55C63.8761 14.3073 63.9541 14.1167 64.1101 13.978C64.2661 13.8393 64.4741 13.77 64.7341 13.77C64.9941 13.77 65.2021 13.8437 65.3581 13.991C65.5228 14.1297 65.6051 14.316 65.6051 14.55V17.657H70.2721V14.55C70.2721 14.316 70.3501 14.1297 70.5061 13.991C70.6708 13.8437 70.8831 13.77 71.1431 13.77C71.4031 13.77 71.6111 13.8393 71.7671 13.978C71.9231 14.1167 72.0011 14.3073 72.0011 14.55V22.35C72.0011 22.5927 71.9231 22.7833 71.7671 22.922C71.6111 23.0607 71.4031 23.13 71.1431 23.13C70.8831 23.13 70.6708 23.0607 70.5061 22.922C70.3501 22.7747 70.2721 22.584 70.2721 22.35V18.996H65.6051V22.35C65.6051 22.584 65.5228 22.7747 65.3581 22.922C65.2021 23.0607 64.9941 23.13 64.7341 23.13ZM77.2311 23C76.5724 23 76.0611 22.8267 75.6971 22.48C75.3331 22.1333 75.1511 21.648 75.1511 21.024V15.824C75.1511 15.2173 75.3244 14.745 75.6711 14.407C76.0264 14.069 76.5161 13.9 77.1401 13.9H81.1831C81.4431 13.9 81.6424 13.9607 81.7811 14.082C81.9197 14.1947 81.9891 14.3593 81.9891 14.576C81.9891 14.784 81.9154 14.9487 81.7681 15.07C81.6294 15.1827 81.4344 15.239 81.1831 15.239H77.4391C77.2657 15.239 77.1271 15.2953 77.0231 15.408C76.9277 15.5207 76.8801 15.6767 76.8801 15.876V17.683H80.1951C80.4551 17.683 80.6544 17.7437 80.7931 17.865C80.9317 17.9777 81.0011 18.1423 81.0011 18.359C81.0011 18.567 80.9274 18.7317 80.7801 18.853C80.6414 18.9657 80.4464 19.022 80.1951 19.022H76.8801V21.024C76.8801 21.2233 76.9277 21.3793 77.0231 21.492C77.1271 21.6047 77.2657 21.661 77.4391 21.661H81.4691C81.7291 21.661 81.9284 21.7217 82.0671 21.843C82.2057 21.9557 82.2751 22.1203 82.2751 22.337C82.2751 22.545 82.2014 22.7097 82.0541 22.831C81.9154 22.9437 81.7204 23 81.4691 23H77.2311ZM86.0891 23.13C85.8291 23.13 85.6211 23.0607 85.4651 22.922C85.3091 22.7833 85.2311 22.5927 85.2311 22.35V17.449C85.2311 16.2963 85.5908 15.395 86.3101 14.745C87.0295 14.095 88.0261 13.77 89.3001 13.77C90.5741 13.77 91.5708 14.095 92.2901 14.745C93.0095 15.395 93.3691 16.2963 93.3691 17.449V22.35C93.3691 22.5927 93.2911 22.7833 93.1351 22.922C92.9791 23.0607 92.7711 23.13 92.5111 23.13C92.2511 23.13 92.0388 23.0607 91.8741 22.922C91.7181 22.7747 91.6401 22.584 91.6401 22.35V17.41C91.6401 16.6733 91.4408 16.11 91.0421 15.72C90.6435 15.33 90.0628 15.135 89.3001 15.135C88.5375 15.135 87.9568 15.33 87.5581 15.72C87.1595 16.11 86.9601 16.6733 86.9601 17.41V22.35C86.9601 22.584 86.8778 22.7747 86.7131 22.922C86.5571 23.0607 86.3491 23.13 86.0891 23.13ZM99.6432 23.13C99.3832 23.13 99.1752 23.0607 99.0192 22.922C98.8632 22.7833 98.7852 22.5927 98.7852 22.35V15.239H96.2762C96.0248 15.239 95.8255 15.1827 95.6782 15.07C95.5395 14.9487 95.4702 14.784 95.4702 14.576C95.4702 14.3593 95.5395 14.1947 95.6782 14.082C95.8168 13.9607 96.0162 13.9 96.2762 13.9H103.023C103.283 13.9 103.483 13.9607 103.621 14.082C103.76 14.1947 103.829 14.3593 103.829 14.576C103.829 14.784 103.756 14.9487 103.608 15.07C103.47 15.1827 103.275 15.239 103.023 15.239H100.514V22.35C100.514 22.584 100.432 22.7747 100.267 22.922C100.111 23.0607 99.9032 23.13 99.6432 23.13ZM107.837 23.13C107.577 23.13 107.369 23.0607 107.213 22.922C107.057 22.7833 106.979 22.5927 106.979 22.35V14.55C106.979 14.3073 107.057 14.1167 107.213 13.978C107.369 13.8393 107.577 13.77 107.837 13.77C108.089 13.77 108.297 13.8393 108.461 13.978C108.626 14.1167 108.708 14.3073 108.708 14.55V22.35C108.708 22.5927 108.626 22.7833 108.461 22.922C108.297 23.0607 108.089 23.13 107.837 23.13ZM120.053 21.895C120.149 22.0163 120.196 22.155 120.196 22.311C120.196 22.4497 120.162 22.584 120.092 22.714C120.023 22.8353 119.932 22.9307 119.819 23C119.681 23.078 119.546 23.117 119.416 23.117C119.2 23.117 118.979 22.987 118.753 22.727L116.153 19.607L113.553 22.727C113.337 22.987 113.116 23.117 112.89 23.117C112.769 23.117 112.635 23.078 112.487 23C112.375 22.9307 112.284 22.8353 112.214 22.714C112.145 22.584 112.11 22.4497 112.11 22.311C112.11 22.155 112.158 22.0163 112.253 21.895L115.139 18.398L112.409 15.122C112.271 14.9573 112.201 14.771 112.201 14.563C112.201 14.433 112.232 14.3117 112.292 14.199C112.353 14.0777 112.435 13.9867 112.539 13.926C112.704 13.8307 112.856 13.783 112.994 13.783C113.228 13.783 113.449 13.9087 113.657 14.16L116.153 17.176L118.649 14.16C118.857 13.9087 119.078 13.783 119.312 13.783C119.468 13.783 119.62 13.8307 119.767 13.926C119.871 13.9867 119.954 14.0777 120.014 14.199C120.075 14.3117 120.105 14.433 120.105 14.563C120.105 14.771 120.036 14.9573 119.897 15.122L117.167 18.398L120.053 21.895Z" fill="#00F58C"/>
<path d="M24 10.6667V8H25.3333V2.66667H22.6667V5.33334H21.3333V10.6667H14.6667V8H16V2.66667H13.3333V5.33334H12V10.6667H2.66667V13.3333H10.6667V14.6667H9.33334V18.6667H2.66667V21.3333H8V24H6.66667V29.3333H9.33334V28V26.6667H10.6667V21.3333H17.3333V22.6667V24H16V29.3333H18.6667V26.6667H20V21.3333H29.3333V18.6667H21.3333V17.3333H22.6667V13.3333H29.3333V10.6667H24ZM20 14.6667H18.6667V18.6667H12V17.3333H13.3333V13.3333H20V14.6667Z" fill="#00F58C"/>
<path d="M17 10.6667V8.00001H15.6667V2.66667H18.3333V5.33334H19.6667V10.6667H26.3333V8.00001H25V2.66667H27.6667V5.33334H29V10.6667H38.3333V13.3333H30.3333V14.6667H31.6667V18.6667H38.3333V21.3333H33V24H34.3333V29.3333H31.6667V28V26.6667H30.3333V21.3333H23.6667V22.6667V24H25V29.3333H22.3333V26.6667H21V21.3333H11.6667V18.6667H19.6667V17.3333H18.3333V13.3333H11.6667V10.6667H17ZM21 14.6667H22.3333V18.6667H29V17.3333H27.6667V13.3333H21V14.6667Z" fill="#00F58C"/>
</svg>
