<svg width="29" height="28" viewBox="0 0 29 28" fill="none" xmlns="http://www.w3.org/2000/svg">
<path d="M25.2883 20.6367C24.4703 20.6387 23.7154 20.9087 23.1081 21.3623L23.1179 21.3554L19.8708 18.4121C20.6779 17.3351 21.1631 15.9783 21.1631 14.5076C21.1631 12.923 20.6001 11.47 19.6621 10.336L19.6709 10.3468L23.2577 6.77027C23.8325 7.15414 24.5392 7.38289 25.2991 7.38289C27.3434 7.38289 29 5.73057 29 3.69144C29 1.65231 27.3434 0 25.2991 0C23.2547 0 21.5982 1.65231 21.5982 3.69144C21.5982 4.45035 21.8275 5.15526 22.2212 5.74137L22.2124 5.72763L18.6266 9.30421C17.4996 8.37742 16.0409 7.81487 14.4493 7.81487C13.527 7.81487 12.65 8.00337 11.8528 8.34502L11.8961 8.32833L10.8803 6.4885C11.6589 5.81304 12.1481 4.8244 12.1481 3.7209C12.1481 1.69846 10.5043 0.0598878 8.47765 0.0598878C6.45101 0.0598878 4.80725 1.69944 4.80725 3.7209C4.80725 5.74334 6.45101 7.38191 8.47765 7.38191C8.48454 7.38191 8.49241 7.38191 8.4993 7.38191C8.89105 7.37602 9.26409 7.31024 9.61352 7.19144L9.58792 7.1993L10.6086 9.04797C8.87924 10.2683 7.76404 12.2534 7.76011 14.4997V14.5007C7.76995 15.185 7.88314 15.8398 8.08492 16.4544L8.07212 16.4083L6.67149 17.0003C6.00119 16.047 4.90469 15.4324 3.66351 15.4324C1.63982 15.4324 0 17.068 0 19.0865C0 21.105 1.63982 22.7407 3.66351 22.7407C5.6872 22.7407 7.32702 21.105 7.32702 19.0865C7.32702 18.8273 7.30045 18.575 7.24926 18.3316L7.2532 18.3551L8.6499 17.7641C9.79856 19.8189 11.964 21.1856 14.4493 21.1856C16.1521 21.1856 17.7053 20.5435 18.8786 19.4891L18.8727 19.494L22.1297 22.4461C21.8 22.9802 21.6031 23.6252 21.5992 24.3174C21.5992 26.3506 23.2518 28 25.2902 28C27.3287 28 28.9813 26.3516 28.9813 24.3184C28.9813 22.2851 27.3287 20.6367 25.2902 20.6367H25.2883ZM6.28171 3.70126C6.28171 2.48093 7.27288 1.49229 8.49635 1.49229C9.71982 1.49229 10.711 2.48093 10.711 3.70126C10.711 4.9216 9.71982 5.91024 8.49635 5.91024C7.27387 5.90827 6.28368 4.92062 6.28171 3.70126ZM3.63398 21.2945C2.4115 21.2935 1.42131 20.3059 1.42131 19.0865C1.42131 17.8672 2.41248 16.8785 3.63497 16.8785C4.85745 16.8785 5.84764 17.8662 5.84862 19.0856C5.84666 20.3049 4.85646 21.2926 3.63398 21.2945ZM25.2883 1.49229C26.5117 1.49229 27.5029 2.48093 27.5029 3.70126C27.5029 4.9216 26.5117 5.91024 25.2883 5.91024C24.0648 5.91024 23.0736 4.9216 23.0736 3.70126C23.0756 2.48191 24.0658 1.49425 25.2883 1.49229ZM9.23457 14.5007C9.23457 14.5007 9.23457 14.5007 9.23457 14.4997C9.23457 11.6212 11.5742 9.28752 14.4601 9.28752C17.3461 9.28752 19.6857 11.6212 19.6857 14.4997C19.6857 17.3783 17.3461 19.7119 14.4601 19.7119C11.5752 19.709 9.2385 17.3773 9.23457 14.5007ZM25.2883 26.5273C24.0648 26.5273 23.0736 25.5387 23.0736 24.3184C23.0736 23.098 24.0648 22.1094 25.2883 22.1094C26.5117 22.1094 27.5029 23.098 27.5029 24.3184C27.5009 25.5377 26.5107 26.5254 25.2883 26.5273Z" fill="#7BFBF4"/>
</svg>
