<svg width="25" height="25" viewBox="0 0 25 25" fill="none" xmlns="http://www.w3.org/2000/svg">
<path d="M9.375 9.37484V15.6248H15.625V9.37484H9.375ZM14.0625 14.0623H10.9375V10.9373H14.0625V14.0623ZM9.375 9.37484V15.6248H15.625V9.37484H9.375ZM14.0625 14.0623H10.9375V10.9373H14.0625V14.0623ZM9.375 9.37484V15.6248H15.625V9.37484H9.375ZM14.0625 14.0623H10.9375V10.9373H14.0625V14.0623ZM9.375 9.37484V15.6248H15.625V9.37484H9.375ZM14.0625 14.0623H10.9375V10.9373H14.0625V14.0623ZM23.75 9.73942L21.3542 7.76025V3.90609C21.3525 3.80621 21.3222 3.70892 21.2668 3.62581C21.2114 3.5427 21.1332 3.47728 21.0417 3.43734L15.8854 1.09359H15.6771L15.3646 1.19775L12.5 3.07275L9.63542 1.14567L9.32291 1.0415H9.11458L3.95833 3.43734C3.86678 3.47728 3.78864 3.5427 3.73323 3.62581C3.67783 3.70892 3.64749 3.80621 3.64583 3.90609V7.76025L1.25 9.73942C1.17772 9.78022 1.11928 9.84168 1.08216 9.91592C1.04504 9.99015 1.03094 10.0738 1.04167 10.1561V14.8436C1.03706 14.9252 1.05386 15.0065 1.09041 15.0796C1.12695 15.1527 1.18197 15.215 1.25 15.2603L3.64583 17.2394V21.0936C3.64749 21.1935 3.67783 21.2907 3.73323 21.3739C3.78864 21.457 3.86678 21.5224 3.95833 21.5623L9.11458 23.9061H9.32291L9.63542 23.8019L12.5 21.9269L15.3646 23.854L15.6771 23.9582H15.8854L21.0417 21.6144C21.1332 21.5745 21.2114 21.5091 21.2668 21.4259C21.3222 21.3428 21.3525 21.2455 21.3542 21.1457V17.2394L23.75 15.2603C23.818 15.215 23.873 15.1527 23.9096 15.0796C23.9461 15.0065 23.9629 14.9252 23.9583 14.8436V10.1561C23.9691 10.0738 23.955 9.99015 23.9178 9.91592C23.8807 9.84168 23.8223 9.78022 23.75 9.73942ZM15.8854 3.64567C16.0399 3.64567 16.191 3.69149 16.3195 3.77733C16.4479 3.86318 16.5481 3.98519 16.6072 4.12795C16.6663 4.2707 16.6818 4.42779 16.6517 4.57933C16.6215 4.73088 16.5471 4.87009 16.4378 4.97935C16.3286 5.08861 16.1894 5.16301 16.0378 5.19316C15.8863 5.2233 15.7292 5.20783 15.5864 5.1487C15.4437 5.08957 15.3217 4.98943 15.2358 4.86096C15.15 4.73248 15.1042 4.58144 15.1042 4.42692C15.1042 4.21972 15.1865 4.02101 15.333 3.87449C15.4795 3.72798 15.6782 3.64567 15.8854 3.64567ZM9.11458 3.64567C9.2691 3.64567 9.42014 3.69149 9.54862 3.77733C9.6771 3.86318 9.77723 3.98519 9.83636 4.12795C9.89549 4.2707 9.91097 4.42779 9.88082 4.57933C9.85068 4.73088 9.77627 4.87009 9.66701 4.97935C9.55775 5.08861 9.41854 5.16301 9.267 5.19316C9.11545 5.2233 8.95837 5.20783 8.81561 5.1487C8.67286 5.08957 8.55084 4.98943 8.465 4.86096C8.37915 4.73248 8.33333 4.58144 8.33333 4.42692C8.33333 4.21972 8.41564 4.02101 8.56216 3.87449C8.70867 3.72798 8.90738 3.64567 9.11458 3.64567ZM9.11458 21.354C8.96007 21.354 8.80902 21.3082 8.68054 21.2223C8.55207 21.1365 8.45193 21.0145 8.3928 20.8717C8.33367 20.729 8.3182 20.5719 8.34834 20.4203C8.37849 20.2688 8.4529 20.1296 8.56216 20.0203C8.67141 19.9111 8.81062 19.8367 8.96217 19.8065C9.11372 19.7764 9.2708 19.7918 9.41355 19.851C9.55631 19.9101 9.67832 20.0102 9.76417 20.1387C9.85001 20.2672 9.89583 20.4182 9.89583 20.5728C9.89583 20.78 9.81352 20.9787 9.66701 21.1252C9.5205 21.2717 9.32178 21.354 9.11458 21.354ZM15.8854 21.354C15.7309 21.354 15.5799 21.3082 15.4514 21.2223C15.3229 21.1365 15.2228 21.0145 15.1636 20.8717C15.1045 20.729 15.089 20.5719 15.1192 20.4203C15.1493 20.2688 15.2237 20.1296 15.333 20.0203C15.4422 19.9111 15.5815 19.8367 15.733 19.8065C15.8845 19.7764 16.0416 19.7918 16.1844 19.851C16.3271 19.9101 16.4492 20.0102 16.535 20.1387C16.6208 20.2672 16.6667 20.4182 16.6667 20.5728C16.6667 20.78 16.5844 20.9787 16.4378 21.1252C16.2913 21.2717 16.0926 21.354 15.8854 21.354ZM17.9687 13.0207C18.1759 13.0207 18.3747 13.103 18.5212 13.2495C18.6677 13.396 18.75 13.5947 18.75 13.8019C18.75 14.0091 18.6677 14.2078 18.5212 14.3543C18.3747 14.5009 18.1759 14.5832 17.9687 14.5832H17.1875V16.1457C17.1875 16.4219 17.0778 16.6869 16.8824 16.8822C16.6871 17.0776 16.4221 17.1873 16.1458 17.1873H14.5833V17.9686C14.5833 18.1758 14.501 18.3745 14.3545 18.521C14.208 18.6675 14.0093 18.7498 13.8021 18.7498C13.5949 18.7498 13.3962 18.6675 13.2497 18.521C13.1031 18.3745 13.0208 18.1758 13.0208 17.9686V17.1873H11.9792V17.9686C11.9792 18.1758 11.8969 18.3745 11.7503 18.521C11.6038 18.6675 11.4051 18.7498 11.1979 18.7498C10.9907 18.7498 10.792 18.6675 10.6455 18.521C10.499 18.3745 10.4167 18.1758 10.4167 17.9686V17.1873H8.85417C8.5779 17.1873 8.31295 17.0776 8.1176 16.8822C7.92225 16.6869 7.8125 16.4219 7.8125 16.1457V14.5832H7.03125C6.82405 14.5832 6.62533 14.5009 6.47882 14.3543C6.33231 14.2078 6.25 14.0091 6.25 13.8019C6.25 13.5947 6.33231 13.396 6.47882 13.2495C6.62533 13.103 6.82405 13.0207 7.03125 13.0207H7.8125V11.979H7.03125C6.82405 11.979 6.62533 11.8967 6.47882 11.7502C6.33231 11.6037 6.25 11.405 6.25 11.1978C6.25 10.9906 6.33231 10.7918 6.47882 10.6453C6.62533 10.4988 6.82405 10.4165 7.03125 10.4165H7.8125V8.854C7.8125 8.57774 7.92225 8.31278 8.1176 8.11743C8.31295 7.92208 8.5779 7.81234 8.85417 7.81234H10.4167V7.03109C10.4167 6.82389 10.499 6.62517 10.6455 6.47866C10.792 6.33215 10.9907 6.24984 11.1979 6.24984C11.4051 6.24984 11.6038 6.33215 11.7503 6.47866C11.8969 6.62517 11.9792 6.82389 11.9792 7.03109V7.81234H13.0208V7.03109C13.0208 6.82389 13.1031 6.62517 13.2497 6.47866C13.3962 6.33215 13.5949 6.24984 13.8021 6.24984C14.0093 6.24984 14.208 6.33215 14.3545 6.47866C14.501 6.62517 14.5833 6.82389 14.5833 7.03109V7.81234H16.1458C16.4221 7.81234 16.6871 7.92208 16.8824 8.11743C17.0778 8.31278 17.1875 8.57774 17.1875 8.854V10.4165H17.9687C18.1759 10.4165 18.3747 10.4988 18.5212 10.6453C18.6677 10.7918 18.75 10.9906 18.75 11.1978C18.75 11.405 18.6677 11.6037 18.5212 11.7502C18.3747 11.8967 18.1759 11.979 17.9687 11.979H17.1875V13.0207H17.9687ZM9.375 15.6248H15.625V9.37484H9.375V15.6248ZM10.9375 10.9373H14.0625V14.0623H10.9375V10.9373ZM9.375 9.37484V15.6248H15.625V9.37484H9.375ZM14.0625 14.0623H10.9375V10.9373H14.0625V14.0623ZM9.375 9.37484V15.6248H15.625V9.37484H9.375ZM14.0625 14.0623H10.9375V10.9373H14.0625V14.0623Z" fill="#B7E4EA"/>
</svg>
