<svg width="26" height="26" viewBox="0 0 26 26" fill="none" xmlns="http://www.w3.org/2000/svg">
<path fill-rule="evenodd" clip-rule="evenodd" d="M10.3918 3.46692C10.128 3.69175 9.99603 3.80417 9.85515 3.8986C9.53221 4.11505 9.16952 4.26527 8.78811 4.34058C8.62172 4.37343 8.44895 4.38721 8.10342 4.41478C7.23526 4.48407 6.80117 4.51871 6.43902 4.64663C5.60139 4.94249 4.94252 5.60135 4.64667 6.43898C4.51875 6.80113 4.48411 7.23522 4.41482 8.10338C4.38725 8.44891 4.37347 8.62168 4.34061 8.78807C4.26531 9.16948 4.11509 9.53217 3.89864 9.85511C3.80421 9.996 3.69179 10.1279 3.46696 10.3917C2.90207 11.0546 2.61961 11.386 2.45399 11.7326C2.07089 12.5341 2.07089 13.4658 2.45399 14.2674C2.61962 14.6139 2.90207 14.9453 3.46696 15.6082C3.69176 15.872 3.80421 16.0039 3.89864 16.1448C4.11509 16.4677 4.26531 16.8304 4.34061 17.2119C4.37347 17.3783 4.38725 17.551 4.41482 17.8965C4.48411 18.7647 4.51875 19.1988 4.64667 19.5609C4.94252 20.3986 5.60139 21.0575 6.43902 21.3533C6.80117 21.4812 7.23526 21.5158 8.10342 21.5852C8.44895 21.6127 8.62172 21.6265 8.78811 21.6594C9.16952 21.7347 9.53221 21.8849 9.85515 22.1014C9.99603 22.1957 10.1279 22.3082 10.3918 22.533C11.0547 23.0979 11.386 23.3803 11.7326 23.546C12.5342 23.9291 13.4658 23.9291 14.2674 23.546C14.6139 23.3803 14.9453 23.0979 15.6082 22.533C15.872 22.3082 16.004 22.1957 16.1448 22.1014C16.4677 21.8849 16.8304 21.7347 17.2119 21.6594C17.3783 21.6265 17.5511 21.6127 17.8966 21.5852C18.7647 21.5158 19.1988 21.4812 19.561 21.3533C20.3986 21.0575 21.0575 20.3986 21.3534 19.5609C21.4812 19.1988 21.5159 18.7647 21.5852 17.8965C21.6127 17.551 21.6266 17.3783 21.6594 17.2119C21.7347 16.8304 21.885 16.4677 22.1014 16.1448C22.1958 16.0039 22.3082 15.872 22.533 15.6082C23.098 14.9453 23.3804 14.6139 23.546 14.2674C23.9291 13.4658 23.9291 12.5341 23.546 11.7326C23.3804 11.386 23.098 11.0546 22.533 10.3917C22.3082 10.1279 22.1958 9.996 22.1014 9.85511C21.885 9.53217 21.7347 9.16948 21.6594 8.78807C21.6266 8.62168 21.6127 8.44891 21.5852 8.10338C21.5159 7.23522 21.4812 6.80113 21.3534 6.43898C21.0575 5.60135 20.3986 4.94249 19.561 4.64663C19.1988 4.51871 18.7647 4.48407 17.8966 4.41478C17.5511 4.38721 17.3783 4.37343 17.2119 4.34058C16.8304 4.26527 16.4677 4.11505 16.1448 3.8986C16.004 3.80417 15.872 3.69176 15.6082 3.46692C14.9453 2.90203 14.6139 2.61958 14.2674 2.45395C13.4658 2.07085 12.5342 2.07085 11.7326 2.45395C11.386 2.61957 11.0547 2.90203 10.3918 3.46692ZM17.738 10.685C18.0822 10.3407 18.0822 9.78246 17.738 9.43813C17.3937 9.09382 16.8353 9.09382 16.491 9.43813L11.2367 14.6926L9.50891 12.9649C9.1646 12.6206 8.60635 12.6206 8.26203 12.9649C7.91771 13.3091 7.91771 13.8674 8.26203 14.2118L10.6132 16.5629C10.9575 16.9072 11.5157 16.9072 11.8601 16.5629L17.738 10.685Z" fill="#B7E4EA"/>
</svg>
