<svg width="26" height="26" viewBox="0 0 26 26" fill="none" xmlns="http://www.w3.org/2000/svg">
<path fill-rule="evenodd" clip-rule="evenodd" d="M3.91516 4.5615C3.44288 4.19418 2.76224 4.27926 2.39492 4.75153C2.02759 5.22381 2.11267 5.90445 2.58495 6.27177L5.05252 8.19099C4.09972 9.2574 3.2832 10.4871 2.62009 11.804L2.5966 11.8505C2.49767 12.0455 2.36994 12.2973 2.31281 12.6079C2.26736 12.8549 2.26736 13.145 2.31281 13.3919C2.36994 13.7025 2.49767 13.9544 2.5966 14.1495L2.62009 14.196C4.72142 18.369 8.36317 21.6667 13.0001 21.6667C15.4172 21.6667 17.564 20.7705 19.3631 19.3215L22.0849 21.4384C22.5573 21.8058 23.2378 21.7207 23.6052 21.2484C23.9725 20.7762 23.8874 20.0955 23.4152 19.7281L3.91516 4.5615ZM17.5945 17.9458L15.647 16.4311C14.9149 16.9968 13.9968 17.3333 13.0001 17.3333C10.6068 17.3333 8.66673 15.3932 8.66673 13C8.66673 12.3882 8.79348 11.8062 9.02215 11.2785L6.76506 9.52296C5.92214 10.443 5.17759 11.5426 4.55526 12.7784C4.52415 12.8402 4.50111 12.886 4.48169 12.9259C4.46457 12.961 4.45393 12.9841 4.44699 13C4.45393 13.0159 4.46457 13.039 4.48169 13.0741C4.50111 13.114 4.52415 13.1597 4.55526 13.2215C6.45634 16.9968 9.49786 19.5 13.0001 19.5C14.659 19.5 16.2146 18.9383 17.5945 17.9458ZM10.8536 12.7029C10.8403 12.8 10.8334 12.8992 10.8334 13C10.8334 14.1966 11.8035 15.1667 13.0001 15.1667C13.2889 15.1667 13.5646 15.1101 13.8166 15.0075L10.8536 12.7029Z" fill="#B7E4EA"/>
<path d="M11.8631 8.81731L17.3328 13.0716C17.3332 13.0477 17.3334 13.0238 17.3334 13C17.3334 10.6067 15.3933 8.66663 13.0001 8.66663C12.6066 8.66663 12.2254 8.71905 11.8631 8.81731Z" fill="#B7E4EA"/>
<path d="M21.4449 13.2215C21.0702 13.9655 20.6512 14.6603 20.193 15.2961L21.9023 16.6255C22.4562 15.866 22.9503 15.0493 23.3801 14.1959L23.4036 14.1495C23.5025 13.9544 23.6302 13.7025 23.6873 13.3919C23.7328 13.145 23.7328 12.8549 23.6873 12.6079C23.6302 12.2973 23.5025 12.0454 23.4036 11.8504L23.3801 11.8039C21.2787 7.63096 17.637 4.33325 13.0001 4.33325C11.1419 4.33325 9.44357 4.86282 7.94012 5.76606L9.81342 7.22308C10.8141 6.75426 11.8837 6.49992 13.0001 6.49992C16.5023 6.49992 19.5438 9.00307 21.4449 12.7784C21.476 12.8401 21.4991 12.886 21.5185 12.9258C21.5356 12.9609 21.5462 12.984 21.5531 12.9999C21.5462 13.0159 21.5356 13.0389 21.5185 13.074C21.4991 13.1139 21.476 13.1596 21.4449 13.2215Z" fill="#B7E4EA"/>
</svg>
