<svg width="480" height="382" viewBox="0 0 480 382" fill="none" xmlns="http://www.w3.org/2000/svg">
<rect x="0.5" y="0.5" width="479" height="381" rx="14.5" stroke="#315A60"/>
<rect x="1.25" y="47.25" width="36.5" height="35.5" stroke="#315A60" stroke-width="0.5"/>
<rect x="38.25" y="47.25" width="36.5" height="35.5" stroke="#315A60" stroke-width="0.5"/>
<rect x="75.25" y="47.25" width="36.5" height="35.5" stroke="#315A60" stroke-width="0.5"/>
<rect x="112.25" y="47.25" width="36.5" height="35.5" fill="#17303E" stroke="#315A60" stroke-width="0.5"/>
<rect x="149.25" y="47.25" width="36.5" height="35.5" fill="#17303E" stroke="#315A60" stroke-width="0.5"/>
<rect x="186.25" y="47.25" width="36.5" height="35.5" stroke="#315A60" stroke-width="0.5"/>
<rect x="223.25" y="47.25" width="36.5" height="35.5" stroke="#315A60" stroke-width="0.5"/>
<rect x="260.25" y="47.25" width="36.5" height="35.5" fill="#17303E" stroke="#315A60" stroke-width="0.5"/>
<rect x="297.25" y="47.25" width="36.5" height="35.5" fill="#17303E" stroke="#315A60" stroke-width="0.5"/>
<rect x="334.25" y="47.25" width="36.5" height="35.5" stroke="#315A60" stroke-width="0.5"/>
<rect x="371.25" y="47.25" width="36.5" height="35.5" stroke="#315A60" stroke-width="0.5"/>
<rect x="408.25" y="47.25" width="36.5" height="35.5" stroke="#315A60" stroke-width="0.5"/>
<rect x="445.25" y="47.25" width="33.5" height="35.5" stroke="#315A60" stroke-width="0.5"/>
<rect x="1.25" y="83.25" width="36.5" height="35.5" stroke="#315A60" stroke-width="0.5"/>
<rect x="38.25" y="83.25" width="36.5" height="35.5" stroke="#315A60" stroke-width="0.5"/>
<rect x="75.25" y="83.25" width="36.5" height="35.5" stroke="#315A60" stroke-width="0.5"/>
<rect x="112.25" y="83.25" width="36.5" height="35.5" stroke="#315A60" stroke-width="0.5"/>
<rect x="149.25" y="83.25" width="36.5" height="35.5" stroke="#315A60" stroke-width="0.5"/>
<rect x="186.25" y="83.25" width="36.5" height="35.5" stroke="#315A60" stroke-width="0.5"/>
<rect x="223.25" y="83.25" width="36.5" height="35.5" stroke="#315A60" stroke-width="0.5"/>
<rect x="260.25" y="83.25" width="36.5" height="35.5" stroke="#315A60" stroke-width="0.5"/>
<rect x="297.25" y="83.25" width="36.5" height="35.5" stroke="#315A60" stroke-width="0.5"/>
<rect x="334.25" y="83.25" width="36.5" height="35.5" stroke="#315A60" stroke-width="0.5"/>
<rect x="371.25" y="83.25" width="36.5" height="35.5" stroke="#315A60" stroke-width="0.5"/>
<rect x="408.25" y="83.25" width="36.5" height="35.5" stroke="#315A60" stroke-width="0.5"/>
<rect x="445.25" y="83.25" width="33.5" height="35.5" stroke="#315A60" stroke-width="0.5"/>
<rect x="1.25" y="119.25" width="36.5" height="35.5" fill="#17303E" stroke="#315A60" stroke-width="0.5"/>
<rect x="38.25" y="119.25" width="36.5" height="35.5" stroke="#315A60" stroke-width="0.5"/>
<rect x="75.25" y="119.25" width="36.5" height="35.5" stroke="#315A60" stroke-width="0.5"/>
<rect x="112.25" y="119.25" width="36.5" height="35.5" stroke="#315A60" stroke-width="0.5"/>
<rect x="149.25" y="119.25" width="36.5" height="35.5" stroke="#315A60" stroke-width="0.5"/>
<rect x="186.25" y="119.25" width="36.5" height="35.5" stroke="#315A60" stroke-width="0.5"/>
<rect x="223.25" y="119.25" width="36.5" height="35.5" stroke="#315A60" stroke-width="0.5"/>
<rect x="260.25" y="119.25" width="36.5" height="35.5" stroke="#315A60" stroke-width="0.5"/>
<rect x="297.25" y="119.25" width="36.5" height="35.5" stroke="#315A60" stroke-width="0.5"/>
<rect x="334.25" y="119.25" width="36.5" height="35.5" stroke="#315A60" stroke-width="0.5"/>
<rect x="371.25" y="119.25" width="36.5" height="35.5" stroke="#315A60" stroke-width="0.5"/>
<rect x="408.25" y="119.25" width="36.5" height="35.5" stroke="#315A60" stroke-width="0.5"/>
<rect x="445.25" y="119.25" width="33.5" height="35.5" fill="#17303E" stroke="#315A60" stroke-width="0.5"/>
<rect x="1.25" y="155.25" width="36.5" height="35.5" stroke="#315A60" stroke-width="0.5"/>
<rect x="38.25" y="155.25" width="36.5" height="35.5" fill="#17303E" stroke="#315A60" stroke-width="0.5"/>
<rect x="75.25" y="155.25" width="36.5" height="35.5" stroke="#315A60" stroke-width="0.5"/>
<rect x="112.25" y="155.25" width="36.5" height="35.5" stroke="#315A60" stroke-width="0.5"/>
<rect x="149.25" y="155.25" width="36.5" height="35.5" stroke="#315A60" stroke-width="0.5"/>
<rect x="186.25" y="155.25" width="36.5" height="35.5" stroke="#315A60" stroke-width="0.5"/>
<rect x="223.25" y="155.25" width="36.5" height="35.5" stroke="#315A60" stroke-width="0.5"/>
<rect x="260.25" y="155.25" width="36.5" height="35.5" stroke="#315A60" stroke-width="0.5"/>
<rect x="297.25" y="155.25" width="36.5" height="35.5" stroke="#315A60" stroke-width="0.5"/>
<rect x="334.25" y="155.25" width="36.5" height="35.5" stroke="#315A60" stroke-width="0.5"/>
<rect x="371.25" y="155.25" width="36.5" height="35.5" stroke="#315A60" stroke-width="0.5"/>
<rect x="408.25" y="155.25" width="36.5" height="35.5" fill="#17303E" stroke="#315A60" stroke-width="0.5"/>
<rect x="445.25" y="155.25" width="33.5" height="35.5" stroke="#315A60" stroke-width="0.5"/>
<rect x="1.25" y="191.25" width="36.5" height="35.5" stroke="#315A60" stroke-width="0.5"/>
<rect x="38.25" y="191.25" width="36.5" height="35.5" fill="#17303E" stroke="#315A60" stroke-width="0.5"/>
<rect x="75.25" y="191.25" width="36.5" height="35.5" stroke="#315A60" stroke-width="0.5"/>
<rect x="112.25" y="191.25" width="36.5" height="35.5" stroke="#315A60" stroke-width="0.5"/>
<rect x="149.25" y="191.25" width="36.5" height="35.5" stroke="#315A60" stroke-width="0.5"/>
<rect x="186.25" y="191.25" width="36.5" height="35.5" stroke="#315A60" stroke-width="0.5"/>
<rect x="223.25" y="191.25" width="36.5" height="35.5" stroke="#315A60" stroke-width="0.5"/>
<rect x="260.25" y="191.25" width="36.5" height="35.5" stroke="#315A60" stroke-width="0.5"/>
<rect x="297.25" y="191.25" width="36.5" height="35.5" stroke="#315A60" stroke-width="0.5"/>
<rect x="334.25" y="191.25" width="36.5" height="35.5" stroke="#315A60" stroke-width="0.5"/>
<rect x="371.25" y="191.25" width="36.5" height="35.5" stroke="#315A60" stroke-width="0.5"/>
<rect x="408.25" y="191.25" width="36.5" height="35.5" fill="#17303E" stroke="#315A60" stroke-width="0.5"/>
<rect x="445.25" y="191.25" width="33.5" height="35.5" stroke="#315A60" stroke-width="0.5"/>
<rect x="1.25" y="227.25" width="36.5" height="35.5" stroke="#315A60" stroke-width="0.5"/>
<rect x="38.25" y="227.25" width="36.5" height="35.5" fill="#17303E" stroke="#315A60" stroke-width="0.5"/>
<rect x="75.25" y="227.25" width="36.5" height="35.5" stroke="#315A60" stroke-width="0.5"/>
<rect x="112.25" y="227.25" width="36.5" height="35.5" stroke="#315A60" stroke-width="0.5"/>
<rect x="149.25" y="227.25" width="36.5" height="35.5" stroke="#315A60" stroke-width="0.5"/>
<rect x="186.25" y="227.25" width="36.5" height="35.5" stroke="#315A60" stroke-width="0.5"/>
<rect x="223.25" y="227.25" width="36.5" height="35.5" stroke="#315A60" stroke-width="0.5"/>
<rect x="260.25" y="227.25" width="36.5" height="35.5" stroke="#315A60" stroke-width="0.5"/>
<rect x="297.25" y="227.25" width="36.5" height="35.5" stroke="#315A60" stroke-width="0.5"/>
<rect x="334.25" y="227.25" width="36.5" height="35.5" stroke="#315A60" stroke-width="0.5"/>
<rect x="371.25" y="227.25" width="36.5" height="35.5" stroke="#315A60" stroke-width="0.5"/>
<rect x="408.25" y="227.25" width="36.5" height="35.5" stroke="#315A60" stroke-width="0.5"/>
<rect x="445.25" y="227.25" width="33.5" height="35.5" stroke="#315A60" stroke-width="0.5"/>
<rect x="1.25" y="263.25" width="36.5" height="35.5" fill="#17303E" stroke="#315A60" stroke-width="0.5"/>
<rect x="38.25" y="263.25" width="36.5" height="35.5" stroke="#315A60" stroke-width="0.5"/>
<rect x="75.25" y="263.25" width="36.5" height="35.5" stroke="#315A60" stroke-width="0.5"/>
<rect x="112.25" y="263.25" width="36.5" height="35.5" stroke="#315A60" stroke-width="0.5"/>
<rect x="149.25" y="263.25" width="36.5" height="35.5" stroke="#315A60" stroke-width="0.5"/>
<rect x="186.25" y="263.25" width="36.5" height="35.5" stroke="#315A60" stroke-width="0.5"/>
<rect x="223.25" y="263.25" width="36.5" height="35.5" stroke="#315A60" stroke-width="0.5"/>
<rect x="260.25" y="263.25" width="36.5" height="35.5" stroke="#315A60" stroke-width="0.5"/>
<rect x="297.25" y="263.25" width="36.5" height="35.5" stroke="#315A60" stroke-width="0.5"/>
<rect x="334.25" y="263.25" width="36.5" height="35.5" stroke="#315A60" stroke-width="0.5"/>
<rect x="371.25" y="263.25" width="36.5" height="35.5" stroke="#315A60" stroke-width="0.5"/>
<rect x="408.25" y="263.25" width="36.5" height="35.5" stroke="#315A60" stroke-width="0.5"/>
<rect x="445.25" y="263.25" width="33.5" height="35.5" stroke="#315A60" stroke-width="0.5"/>
<rect x="1.25" y="299.25" width="36.5" height="35.5" stroke="#315A60" stroke-width="0.5"/>
<rect x="38.25" y="299.25" width="36.5" height="35.5" stroke="#315A60" stroke-width="0.5"/>
<rect x="75.25" y="299.25" width="36.5" height="35.5" stroke="#315A60" stroke-width="0.5"/>
<rect x="112.25" y="299.25" width="36.5" height="35.5" stroke="#315A60" stroke-width="0.5"/>
<rect x="149.25" y="299.25" width="36.5" height="35.5" stroke="#315A60" stroke-width="0.5"/>
<rect x="186.25" y="299.25" width="36.5" height="35.5" stroke="#315A60" stroke-width="0.5"/>
<rect x="223.25" y="299.25" width="36.5" height="35.5" stroke="#315A60" stroke-width="0.5"/>
<rect x="260.25" y="299.25" width="36.5" height="35.5" stroke="#315A60" stroke-width="0.5"/>
<rect x="297.25" y="299.25" width="36.5" height="35.5" stroke="#315A60" stroke-width="0.5"/>
<rect x="334.25" y="299.25" width="36.5" height="35.5" stroke="#315A60" stroke-width="0.5"/>
<rect x="371.25" y="299.25" width="36.5" height="35.5" stroke="#315A60" stroke-width="0.5"/>
<rect x="408.25" y="299.25" width="36.5" height="35.5" stroke="#315A60" stroke-width="0.5"/>
<rect x="445.25" y="299.25" width="33.5" height="35.5" stroke="#315A60" stroke-width="0.5"/>
</svg>
