<svg width="109" height="32" viewBox="0 0 109 32" fill="none" xmlns="http://www.w3.org/2000/svg">
<path d="M44.3709 21.803C44.7722 21.803 45.1316 21.7353 45.4489 21.6C45.7662 21.4647 46.0346 21.2757 46.2539 21.033C46.4732 20.7857 46.6412 20.494 46.7579 20.158C46.8746 19.8173 46.9329 19.4417 46.9329 19.031V12.948H48.4169V19.031C48.4169 19.619 48.3236 20.1627 48.1369 20.662C47.9502 21.1613 47.6819 21.593 47.3319 21.957C46.9819 22.321 46.5572 22.6057 46.0579 22.811C45.5586 23.0163 44.9962 23.119 44.3709 23.119C43.7456 23.119 43.1832 23.0163 42.6839 22.811C42.1846 22.6057 41.7599 22.321 41.4099 21.957C41.0599 21.593 40.7916 21.1613 40.6049 20.662C40.4182 20.1627 40.3249 19.619 40.3249 19.031V12.948H41.8159V19.024C41.8159 19.4347 41.8719 19.8103 41.9839 20.151C42.1006 20.4917 42.2686 20.7857 42.4879 21.033C42.7072 21.2757 42.9756 21.4647 43.2929 21.6C43.6102 21.7353 43.9696 21.803 44.3709 21.803ZM57.6262 14.194H54.4342V23H52.9502V14.194H49.7442V12.948H57.6262V14.194ZM67.304 12.948V23H65.813V18.471H60.57V23H59.072V12.948H60.57V17.386H65.813V12.948H67.304ZM76.0278 21.789L76.0208 23H69.7908V12.948H76.0208V14.159H71.2888V17.344H75.0968V18.513H71.2888V21.789H76.0278ZM86.1028 12.948V23H85.3468C85.2302 23 85.1322 22.979 85.0528 22.937C84.9782 22.895 84.9012 22.8273 84.8218 22.734L79.1448 15.391C79.1542 15.517 79.1612 15.6407 79.1658 15.762C79.1752 15.8833 79.1798 15.9977 79.1798 16.105V23H77.8708V12.948H78.6408C78.7715 12.948 78.8695 12.9643 78.9348 12.997C79.0002 13.025 79.0725 13.0927 79.1518 13.2L84.8428 20.55C84.8288 20.4147 84.8172 20.284 84.8078 20.158C84.8032 20.0273 84.8008 19.906 84.8008 19.794V12.948H86.1028ZM95.4426 14.194H92.2506V23H90.7666V14.194H87.5606V12.948H95.4426V14.194ZM98.3864 23H96.8884V12.948H98.3864V23ZM108.665 23H107.188C107.081 23 106.994 22.972 106.929 22.916C106.864 22.8553 106.812 22.7923 106.775 22.727L104.178 18.59C104.141 18.7067 104.096 18.807 104.045 18.891L101.518 22.727C101.471 22.7923 101.418 22.8553 101.357 22.916C101.296 22.972 101.219 23 101.126 23H99.7329L103.17 17.827L99.8799 12.948H101.357C101.464 12.948 101.544 12.9643 101.595 12.997C101.646 13.0297 101.691 13.0787 101.728 13.144L104.269 17.085C104.306 16.9637 104.358 16.8517 104.423 16.749L106.803 13.172C106.845 13.0973 106.892 13.0413 106.943 13.004C106.994 12.9667 107.06 12.948 107.139 12.948H108.56L105.249 17.764L108.665 23Z" fill="url(#paint0_linear_1_13)"/>
<path d="M24 10.6667V8H25.3333V2.66667H22.6667V5.33334H21.3333V10.6667H14.6667V8H16V2.66667H13.3333V5.33334H12V10.6667H2.66667V13.3333H10.6667V14.6667H9.33334V18.6667H2.66667V21.3333H8V24H6.66667V29.3333H9.33334V28V26.6667H10.6667V21.3333H17.3333V22.6667V24H16V29.3333H18.6667V26.6667H20V21.3333H29.3333V18.6667H21.3333V17.3333H22.6667V13.3333H29.3333V10.6667H24ZM20 14.6667H18.6667V18.6667H12V17.3333H13.3333V13.3333H20V14.6667Z" fill="#7CF6F4"/>
<path d="M17 10.6667V8.00001H15.6667V2.66667H18.3333V5.33334H19.6667V10.6667H26.3333V8.00001H25V2.66667H27.6667V5.33334H29V10.6667H38.3333V13.3333H30.3333V14.6667H31.6667V18.6667H38.3333V21.3333H33V24H34.3333V29.3333H31.6667V28V26.6667H30.3333V21.3333H23.6667V22.6667V24H25V29.3333H22.3333V26.6667H21V21.3333H11.6667V18.6667H19.6667V17.3333H18.3333V13.3333H11.6667V10.6667H17ZM21 14.6667H22.3333V18.6667H29V17.3333H27.6667V13.3333H21V14.6667Z" fill="#7CF6F4"/>
<defs>
<linearGradient id="paint0_linear_1_13" x1="39" y1="17.5" x2="109" y2="17.5" gradientUnits="userSpaceOnUse">
<stop stop-color="#7BFBF4"/>
<stop offset="1" stop-color="#82B0EB"/>
</linearGradient>
</defs>
</svg>
